<?xml version="1.0" encoding="utf-8"?>
<!-- Generator: Adobe Illustrator 17.0.0, SVG Export Plug-In . SVG Version: 6.00 Build 0)  -->
<!DOCTYPE svg PUBLIC "-//W3C//DTD SVG 1.1//EN" "http://www.w3.org/Graphics/SVG/1.1/DTD/svg11.dtd">
<svg version="1.1" id="Layer_1" xmlns="http://www.w3.org/2000/svg" xmlns:xlink="http://www.w3.org/1999/xlink" x="0px" y="0px"
	 width="550px" height="550px" viewBox="-125 -107.5 550 550" enable-background="new -125 -107.5 550 550" xml:space="preserve">
<rect x="-125" y="-107.5" fill="#39BCAA" width="550" height="550"/>
<g>
	<g>
		<path fill="#CCCCCC" stroke="#CCCCCC" stroke-width="0.7471" stroke-miterlimit="10" d="M199.297,79.582
			c15.868,15.179,39.588,48.951,40.752,103.968c1.518,71.728-40.752,138.299-92.129,138.299c-27.328,0-51.842-17.758-68.519-45.879
			c10.347,15.474,23.417,24.59,37.326,24.59c12.736,0,24.254-7.568,33.552-20.698c14.211-20.072,32.636-58.704,31.869-97.224
			c-1.08-54.145-10.833-78.792-28.548-98.066C120.98,49.081,81.648,51.94,81.648,51.94S144.426,27.096,199.297,79.582z"/>
		<path fill="#FFFFFF" stroke="#CCCCCC" stroke-width="0.7471" stroke-miterlimit="10" d="M127.445,47.686
			c-5.84,1.851-11.391,3.93-16.666,6.223c-59.373,25.733-84.113,78.302-84.113,136.467c0,34.542,11.3,64.143,26.085,91.07
			c5.336,9.708,4.496,18.883,4.496,28.961C18.362,283.128-0.75,245.453-0.75,194.413C-0.752,126.692,34.249,38.818,127.445,47.686z"
			/>
		<path fill="#CCCCCC" stroke="#CCCCCC" stroke-width="0.7471" stroke-miterlimit="10" d="M177.021,41.733
			c0,0,83.689,45.546,84.757,159.229c0.377,40.197-4.525,81.253-26.453,111.482c38.624-26.452,47.95-34.678,55.505-46.36
			c9.74-15.091,10.461-51.058,9.693-71.162c-3.067-80.377-43.036-121.056-76.537-141.513
			C202.6,40.351,177.021,41.733,177.021,41.733z"/>
		<path fill="#FFFFFF" stroke="#CCCCCC" stroke-width="0.7471" stroke-miterlimit="10" d="M103.002,74.47
			c-15.868,15.179-27.937,34.852-35.849,55.348c-0.045,0.106-0.092,0.196-0.121,0.303c-5.401,14.794-8.916,31.114-9.86,48.389
			c-0.151,3.041-0.243,6.111-0.243,9.212c0,74.074,40.733,134.126,90.978,134.126c27.328,0,51.842-17.758,68.519-45.879
			c-10.347,15.474-23.417,24.59-37.326,24.59c-12.736,0-24.254-7.568-33.552-20.698c-14.211-20.072-23.19-53.028-23.19-91.555
			c0-41.385,12.607-83.254,30.322-102.528c32.62-35.492,61.129-37.451,61.129-37.451S157.873,21.984,103.002,74.47z"/>
	</g>
	<g>
		<g>
			<g>
				<defs>
					<circle id="SVGID_1_" cx="145.481" cy="117.12" r="96.78"/>
				</defs>
				<clipPath id="SVGID_2_">
					<use xlink:href="#SVGID_1_"  overflow="visible"/>
				</clipPath>
				<g clip-path="url(#SVGID_2_)">
					<path fill="#989898" stroke="#989898" stroke-width="0.7471" stroke-miterlimit="10" d="M199.396,79.582
						c15.868,15.179,39.588,48.951,40.752,103.968c1.518,71.728-40.752,138.299-92.129,138.299
						c-27.328,0-51.842-17.758-68.519-45.879c10.347,15.474,23.417,24.59,37.326,24.59c12.736,0,24.254-7.568,33.552-20.698
						c14.211-20.072,32.637-58.704,31.869-97.224c-1.08-54.145-10.833-78.792-28.548-98.066
						C121.079,49.081,81.747,51.94,81.747,51.94S144.527,27.096,199.396,79.582z"/>
					<path fill="#CCCBCB" stroke="#989898" stroke-width="0.7471" stroke-miterlimit="10" d="M127.543,47.686
						c-5.84,1.851-11.391,3.93-16.666,6.223c-59.373,25.733-84.113,78.302-84.113,136.467c0,34.542,11.3,64.143,26.085,91.07
						c5.336,9.708,4.496,18.883,4.496,28.961C18.461,283.128-0.651,245.453-0.651,194.413
						C-0.649,126.692,34.348,38.818,127.543,47.686z"/>
					<path fill="#989898" stroke="#989898" stroke-width="0.7471" stroke-miterlimit="10" d="M177.12,41.733
						c0,0,83.689,45.546,84.757,159.229c0.377,40.197-4.525,81.253-26.453,111.482c38.624-26.452,47.95-34.678,55.505-46.36
						c9.74-15.091,10.461-51.058,9.693-71.162c-3.067-80.377-43.036-121.056-76.537-141.513
						C202.699,40.349,177.12,41.733,177.12,41.733z"/>
					<path fill="#CCCBCB" stroke="#989898" stroke-width="0.7471" stroke-miterlimit="10" d="M103.104,74.47
						c-15.868,15.179-27.937,34.852-35.849,55.348c-0.045,0.106-0.092,0.196-0.121,0.303c-5.401,14.794-8.916,31.114-9.86,48.389
						c-0.151,3.041-0.243,6.111-0.243,9.212c0,74.074,40.733,134.126,90.978,134.126c27.328,0,51.842-17.758,68.519-45.879
						c-10.347,15.474-23.417,24.59-37.326,24.59c-12.736,0-24.254-7.568-33.552-20.698c-14.211-20.072-23.19-53.028-23.19-91.555
						c0-41.385,12.607-83.254,30.322-102.528c32.62-35.492,61.129-37.451,61.129-37.451S157.974,21.984,103.104,74.47z"/>
				</g>
			</g>
		</g>
	</g>
	<circle fill="none" stroke="#008791" stroke-width="1.8677" stroke-miterlimit="10" cx="145.481" cy="117.12" r="96.78"/>
	<g>
		<g opacity="0.3">
			
				<text transform="matrix(1 0 0 1 85.9473 200.2623)" fill="#008791" font-family="'TamilSangamMN-Bold'" font-size="220.1335" letter-spacing="-1">A</text>
		</g>
	</g>
</g>
</svg>
