<?xml version="1.0" encoding="utf-8"?>
<!-- Generator: Adobe Illustrator 17.0.0, SVG Export Plug-In . SVG Version: 6.00 Build 0)  -->
<!DOCTYPE svg PUBLIC "-//W3C//DTD SVG 1.1//EN" "http://www.w3.org/Graphics/SVG/1.1/DTD/svg11.dtd">
<svg version="1.1" id="Layer_1" xmlns="http://www.w3.org/2000/svg" xmlns:xlink="http://www.w3.org/1999/xlink" x="0px" y="0px"
	 width="345px" height="335px" viewBox="0 0 345 335" enable-background="new 0 0 345 335" xml:space="preserve">
<rect fill="#39BCAA" width="345" height="335"/>
<g>
	<g>
		<path fill="#CCCCCC" stroke="#CCCCCC" stroke-width="0.4" stroke-miterlimit="10" d="M198.895,120.428
			c8.496,8.127,21.196,26.209,21.819,55.666c0.813,38.404-21.819,74.047-49.327,74.047c-14.632,0-27.757-9.508-36.686-24.564
			c5.54,8.285,12.538,13.166,19.985,13.166c6.819,0,12.986-4.052,17.964-11.082c7.609-10.747,17.474-31.431,17.063-52.055
			c-0.578-28.99-5.8-42.186-15.285-52.506c-17.465-19.003-38.524-17.472-38.524-17.472S169.515,92.326,198.895,120.428z"/>
		<path fill="#FFFFFF" stroke="#CCCCCC" stroke-width="0.4" stroke-miterlimit="10" d="M160.424,103.35
			c-3.127,0.991-6.099,2.104-8.923,3.332c-31.789,13.778-45.035,41.924-45.035,73.066c0,18.494,6.05,34.343,13.966,48.76
			c2.857,5.198,2.407,10.11,2.407,15.506c-20.819-14.605-31.052-34.777-31.052-62.104C91.785,145.651,110.525,98.602,160.424,103.35
			z"/>
		<path fill="#CCCCCC" stroke="#CCCCCC" stroke-width="0.4" stroke-miterlimit="10" d="M186.968,100.163
			c0,0,44.808,24.386,45.38,85.253c0.202,21.522-2.423,43.504-14.163,59.689c20.68-14.163,25.673-18.567,29.718-24.822
			c5.215-8.08,5.601-27.337,5.19-38.101c-1.642-43.035-23.042-64.815-40.979-75.768C200.663,99.423,186.968,100.163,186.968,100.163
			z"/>
		<path fill="#FFFFFF" stroke="#CCCCCC" stroke-width="0.4" stroke-miterlimit="10" d="M147.336,117.691
			c-8.496,8.127-14.958,18.66-19.194,29.634c-0.024,0.057-0.049,0.105-0.065,0.162c-2.892,7.921-4.774,16.659-5.279,25.908
			c-0.081,1.628-0.13,3.272-0.13,4.932c0,39.66,21.809,71.813,48.711,71.813c14.632,0,27.757-9.508,36.686-24.564
			c-5.54,8.285-12.538,13.166-19.985,13.166c-6.819,0-12.986-4.052-17.964-11.082c-7.609-10.747-12.416-28.392-12.416-49.02
			c0-22.158,6.75-44.575,16.235-54.895c17.465-19.003,32.729-20.052,32.729-20.052S176.715,89.589,147.336,117.691z"/>
	</g>
	<g>
		<g>
			<g>
				<g>
					<defs>
						<circle id="SVGID_1_" cx="170.079" cy="140.526" r="51.817"/>
					</defs>
					<clipPath id="SVGID_2_">
						<use xlink:href="#SVGID_1_"  overflow="visible"/>
					</clipPath>
					<g clip-path="url(#SVGID_2_)">
						<path fill="#989898" stroke="#989898" stroke-width="0.4" stroke-miterlimit="10" d="M198.947,120.428
							c8.496,8.127,21.196,26.209,21.819,55.666c0.813,38.404-21.819,74.047-49.327,74.047c-14.632,0-27.757-9.508-36.686-24.564
							c5.54,8.285,12.538,13.166,19.985,13.166c6.819,0,12.986-4.052,17.964-11.082c7.609-10.747,17.474-31.431,17.063-52.055
							c-0.578-28.99-5.8-42.186-15.285-52.506c-17.465-19.003-38.524-17.472-38.524-17.472S169.57,92.326,198.947,120.428z"/>
						<path fill="#CCCBCB" stroke="#989898" stroke-width="0.4" stroke-miterlimit="10" d="M160.476,103.35
							c-3.127,0.991-6.099,2.104-8.923,3.332c-31.789,13.778-45.035,41.924-45.035,73.066c0,18.494,6.05,34.343,13.966,48.76
							c2.857,5.198,2.407,10.11,2.407,15.506c-20.819-14.605-31.052-34.777-31.052-62.104
							C91.84,145.651,110.578,98.602,160.476,103.35z"/>
						<path fill="#989898" stroke="#989898" stroke-width="0.4" stroke-miterlimit="10" d="M187.02,100.163
							c0,0,44.808,24.386,45.38,85.253c0.202,21.522-2.423,43.504-14.163,59.689c20.68-14.163,25.673-18.567,29.718-24.822
							c5.215-8.08,5.601-27.337,5.19-38.101c-1.642-43.035-23.042-64.815-40.979-75.768
							C200.715,99.422,187.02,100.163,187.02,100.163z"/>
						<path fill="#CCCBCB" stroke="#989898" stroke-width="0.4" stroke-miterlimit="10" d="M147.391,117.691
							c-8.496,8.127-14.958,18.66-19.194,29.634c-0.024,0.057-0.049,0.105-0.065,0.162c-2.892,7.921-4.774,16.659-5.279,25.908
							c-0.081,1.628-0.13,3.272-0.13,4.932c0,39.66,21.809,71.813,48.711,71.813c14.632,0,27.757-9.508,36.686-24.564
							c-5.54,8.285-12.538,13.166-19.985,13.166c-6.819,0-12.986-4.052-17.964-11.082c-7.609-10.747-12.416-28.392-12.416-49.02
							c0-22.158,6.75-44.575,16.235-54.895c17.465-19.003,32.729-20.052,32.729-20.052S176.77,89.589,147.391,117.691z"/>
					</g>
				</g>
			</g>
		</g>
	</g>
	<circle fill="none" stroke="#008791" stroke-miterlimit="10" cx="170.079" cy="140.526" r="51.817"/>
	<g>
		<g opacity="0.3">
			<text transform="matrix(1 0 0 1 138.2045 185.0408)" fill="#008791" font-family="'TamilSangamMN-Bold'" font-size="117.8623">A</text>
		</g>
	</g>
</g>
</svg>
