<?xml version="1.0" encoding="utf-8"?>
<!-- Generator: Adobe Illustrator 17.0.0, SVG Export Plug-In . SVG Version: 6.00 Build 0)  -->
<!DOCTYPE svg PUBLIC "-//W3C//DTD SVG 1.1//EN" "http://www.w3.org/Graphics/SVG/1.1/DTD/svg11.dtd">
<svg version="1.1" id="Layer_1" xmlns="http://www.w3.org/2000/svg" xmlns:xlink="http://www.w3.org/1999/xlink" x="0px" y="0px"
	 width="65px" height="60px" viewBox="0 0 65 60" enable-background="new 0 0 65 60" xml:space="preserve">
<g>
	<path fill="#008791" stroke="#028892" stroke-width="1.5" stroke-miterlimit="10" d="M59.059,40.354
		c-1.962-12.25-7.669-20.071-11.706-23.932C30.673,0.466,11.589,8.018,11.589,8.018s11.511-0.442,21.872,9.92
		c7.697,7.697,9.007,21.294,8.678,29.811c-0.094,2.426-0.379,4.854-0.812,7.233C48.991,52.634,55.351,47.308,59.059,40.354z"/>
	<path fill="#39BCAA" stroke="#39BCAA" stroke-width="1.5" stroke-miterlimit="10" d="M20.017,8.446
		c1.584-0.741,3.253-1.603,5.013-2.213C17.907,5.18,11.221,7.111,6.976,9.897c-2.445,3.944-4,8.489-4.395,13.349
		C6.532,17.173,12.256,12.064,20.017,8.446z"/>
	<path fill="#008791" stroke="#028892" stroke-width="1.5" stroke-miterlimit="10" d="M58.318,10.783
		c-1.166-0.854-2.314-1.643-3.46-2.317c-6.536-3.842-14.277-3.549-14.277-3.549s14.3,7.783,21.595,26.243
		c0.265-1.606,0.405-3.254,0.405-4.936C62.581,20.578,61.024,15.296,58.318,10.783z"/>
	<path fill="#39BCAA" stroke="#39BCAA" stroke-width="1.5" stroke-miterlimit="10" d="M33.182,18.305
		C43.098,7.516,51.581,6.839,51.581,6.839s-16.82-7.927-33.5,8.028c-4.824,4.614-8.492,10.594-10.898,16.825
		c-0.014,0.032-0.028,0.06-0.037,0.092c-0.81,2.217-1.479,4.548-1.985,6.97c3.622,7.89,10.556,13.942,19.023,16.376
		c-0.144-1.833-0.22-3.722-0.22-5.658C23.965,36.891,27.797,24.164,33.182,18.305z"/>
</g>
</svg>
