<?xml version="1.0" encoding="utf-8"?>
<!-- Generator: Adobe Illustrator 17.0.0, SVG Export Plug-In . SVG Version: 6.00 Build 0)  -->
<!DOCTYPE svg PUBLIC "-//W3C//DTD SVG 1.1//EN" "http://www.w3.org/Graphics/SVG/1.1/DTD/svg11.dtd">
<svg version="1.1" id="Layer_1" xmlns="http://www.w3.org/2000/svg" xmlns:xlink="http://www.w3.org/1999/xlink" x="0px" y="0px"
	 width="1280px" height="480px" viewBox="0 0 1280 480" enable-background="new 0 0 1280 480" xml:space="preserve">
<rect y="0" fill="#FFFFFF" width="640" height="480"/>
<g>
	<defs>
		<circle id="SVGID_1_" cx="319.612" cy="212.323" r="122.743"/>
	</defs>
	<clipPath id="SVGID_2_">
		<use xlink:href="#SVGID_1_"  overflow="visible"/>
	</clipPath>
	<g clip-path="url(#SVGID_2_)">
		<rect x="196.602" y="212.842" fill="#333333" width="247.106" height="15.942"/>
		<rect x="196.602" y="271.297" fill="#333333" width="247.106" height="10.628"/>
		<rect x="196.602" y="154.387" fill="#333333" width="247.106" height="18.599"/>
		<rect x="196.602" y="122.492" fill="#333333" width="247.106" height="21.256"/>
		<rect x="196.602" y="300.525" fill="#333333" width="247.106" height="7.971"/>
		<rect x="196.602" y="87.96" fill="#333333" width="247.106" height="23.913"/>
		<rect x="196.602" y="329.752" fill="#333333" width="247.106" height="5.314"/>
		<rect x="196.602" y="183.614" fill="#333333" width="247.106" height="18.599"/>
		<rect x="196.602" y="242.069" fill="#333333" width="247.106" height="13.285"/>
	</g>
</g>
<g>
	<path fill="#454346" d="M238.295,366.572c-2.725,0-4.834,1.025-6.329,3.07c-1.495,2.05-2.242,4.902-2.242,8.56
		c0,7.613,2.857,11.42,8.571,11.42c2.398,0,5.301-0.599,8.711-1.798v6.072c-2.802,1.168-5.932,1.751-9.388,1.751
		c-4.966,0-8.765-1.505-11.396-4.52c-2.631-3.01-3.947-7.335-3.947-12.971c0-3.55,0.646-6.658,1.938-9.328
		c1.292-2.67,3.149-4.717,5.57-6.144c2.421-1.422,5.258-2.136,8.512-2.136c3.316,0,6.648,0.802,9.995,2.405l-2.335,5.885
		c-1.277-0.607-2.561-1.137-3.853-1.588C240.809,366.798,239.541,366.572,238.295,366.572z"/>
	<path fill="#454346" d="M274.078,395.18h-7.123v-15.25c0-3.768-1.401-5.651-4.204-5.651c-1.993,0-3.433,0.677-4.32,2.032
		c-0.887,1.354-1.331,3.55-1.331,6.586v12.284h-7.123v-36.337h7.123v7.403c0,0.576-0.055,1.931-0.163,4.063l-0.163,2.102h0.374
		c1.588-2.553,4.11-3.83,7.566-3.83c3.067,0,5.395,0.825,6.983,2.475c1.588,1.65,2.382,4.017,2.382,7.099V395.18z"/>
	<path fill="#454346" d="M296.176,395.18l-0.957-3.339h-0.374c-0.763,1.214-1.845,2.154-3.246,2.815
		c-1.401,0.659-2.997,0.991-4.787,0.991c-3.067,0-5.379-0.82-6.936-2.465c-1.557-1.64-2.335-4.004-2.335-7.086v-17.024h7.123v15.25
		c0,1.884,0.335,3.298,1.004,4.237c0.669,0.944,1.736,1.414,3.199,1.414c1.993,0,3.433-0.667,4.32-1.995
		c0.887-1.334,1.331-3.539,1.331-6.622v-12.284h7.123v26.109H296.176z"/>
	<path fill="#454346" d="M316.382,389.972c1.246,0,2.74-0.272,4.484-0.817v5.301c-1.775,0.794-3.954,1.191-6.539,1.191
		c-2.849,0-4.924-0.719-6.224-2.159c-1.3-1.44-1.95-3.602-1.95-6.482v-12.587h-3.41v-3.013l3.923-2.382l2.055-5.511h4.554v5.558
		h7.309v5.348h-7.309v12.587c0,1.012,0.284,1.759,0.852,2.242C314.697,389.73,315.448,389.972,316.382,389.972z"/>
	<path fill="#454346" d="M340.581,395.18h-20.621v-4.204l12.097-16.464h-11.373v-5.441h19.476v4.624l-11.77,16.043h12.19V395.18z"/>
	<path fill="#454346" d="M356.351,395.647c-3.067,0-5.472-1.113-7.216-3.339h-0.374c0.249,2.18,0.374,3.441,0.374,3.783v10.579
		h-7.123v-37.598h5.792l1.004,3.386h0.327c1.666-2.584,4.133-3.877,7.403-3.877c3.083,0,5.496,1.191,7.239,3.573
		c1.744,2.382,2.616,5.69,2.616,9.925c0,2.787-0.409,5.208-1.226,7.263c-0.817,2.055-1.981,3.62-3.491,4.694
		S358.391,395.647,356.351,395.647z M354.249,374.279c-1.759,0-3.044,0.542-3.853,1.622c-0.81,1.085-1.23,2.87-1.261,5.361v0.771
		c0,2.802,0.416,4.811,1.249,6.025s2.152,1.822,3.958,1.822c3.192,0,4.787-2.631,4.787-7.893c0-2.569-0.393-4.497-1.179-5.779
		C357.165,374.919,355.931,374.279,354.249,374.279z"/>
	<path fill="#454346" d="M385.128,395.18l-1.378-3.55h-0.187c-1.199,1.51-2.433,2.558-3.701,3.14
		c-1.269,0.586-2.923,0.877-4.962,0.877c-2.507,0-4.48-0.716-5.92-2.148c-1.44-1.432-2.16-3.472-2.16-6.118
		c0-2.771,0.969-4.813,2.907-6.129s4.861-2.045,8.769-2.185l4.53-0.14v-1.144c0-2.647-1.354-3.97-4.063-3.97
		c-2.086,0-4.538,0.631-7.356,1.892l-2.359-4.811c3.005-1.572,6.336-2.359,9.995-2.359c3.503,0,6.189,0.763,8.057,2.289
		c1.868,1.526,2.802,3.845,2.802,6.959v17.398H385.128z M383.027,383.083l-2.756,0.093c-2.071,0.062-3.612,0.436-4.624,1.121
		c-1.012,0.685-1.518,1.728-1.518,3.129c0,2.008,1.152,3.013,3.456,3.013c1.65,0,2.97-0.475,3.958-1.425
		c0.989-0.95,1.483-2.211,1.483-3.783V383.083z"/>
	<path fill="#454346" d="M417.804,395.18h-7.123v-15.25c0-3.768-1.401-5.651-4.204-5.651c-1.993,0-3.433,0.677-4.32,2.032
		c-0.887,1.354-1.331,3.55-1.331,6.586v12.284h-7.123v-36.337h7.123v7.403c0,0.576-0.054,1.931-0.163,4.063l-0.163,2.102h0.374
		c1.588-2.553,4.11-3.83,7.566-3.83c3.067,0,5.395,0.825,6.983,2.475c1.588,1.65,2.382,4.017,2.382,7.099V395.18z"/>
</g>
<g>
	
		<circle display="none" fill="none" stroke="#FFFFFF" stroke-width="0.7" stroke-miterlimit="10" cx="320.388" cy="211.536" r="122.743"/>
	<circle fill="#FFFFFF" cx="352.233" cy="214.193" r="60.24"/>
</g>
<rect x="640" y="0" opacity="0.1" fill="#454346" width="640" height="480"/>
<g>
	<g>
		<defs>
			<circle id="SVGID_3_" cx="959.612" cy="212.323" r="122.743"/>
		</defs>
		<clipPath id="SVGID_4_">
			<use xlink:href="#SVGID_3_"  overflow="visible"/>
		</clipPath>
		<g clip-path="url(#SVGID_4_)">
			<rect x="836.602" y="212.842" fill="#F05925" width="247.106" height="15.942"/>
			<rect x="836.602" y="271.297" fill="#FF6633" width="247.106" height="10.628"/>
			<rect x="836.602" y="154.387" fill="#E9302A" width="247.106" height="18.599"/>
			<rect x="836.602" y="122.492" fill="#CD023C" width="247.106" height="21.256"/>
			<rect x="836.602" y="300.525" fill="#FC7318" width="247.106" height="7.971"/>
			<rect x="836.602" y="87.96" fill="#CD023C" width="247.106" height="23.913"/>
			<rect x="836.602" y="329.752" fill="#F3763A" width="247.106" height="5.314"/>
			<rect x="836.602" y="183.614" fill="#E9302A" width="247.106" height="18.599"/>
			<rect x="836.602" y="242.069" fill="#F05925" width="247.106" height="13.285"/>
		</g>
	</g>
	<g>
		<path fill="#454346" d="M878.295,366.572c-2.725,0-4.834,1.025-6.329,3.07c-1.495,2.05-2.242,4.902-2.242,8.56
			c0,7.613,2.857,11.42,8.571,11.42c2.398,0,5.301-0.599,8.711-1.798v6.072c-2.802,1.168-5.932,1.751-9.388,1.751
			c-4.966,0-8.765-1.505-11.396-4.52c-2.631-3.01-3.947-7.335-3.947-12.971c0-3.55,0.646-6.658,1.938-9.328
			c1.292-2.67,3.149-4.717,5.57-6.144c2.421-1.422,5.258-2.136,8.512-2.136c3.316,0,6.648,0.802,9.995,2.405l-2.335,5.885
			c-1.277-0.607-2.561-1.137-3.853-1.588C880.81,366.798,879.541,366.572,878.295,366.572z"/>
		<path fill="#454346" d="M914.078,395.18h-7.123v-15.25c0-3.768-1.401-5.651-4.204-5.651c-1.993,0-3.433,0.677-4.32,2.032
			c-0.887,1.354-1.331,3.55-1.331,6.586v12.284h-7.123v-36.337h7.123v7.403c0,0.576-0.054,1.931-0.163,4.063l-0.163,2.102h0.374
			c1.588-2.553,4.11-3.83,7.566-3.83c3.067,0,5.395,0.825,6.983,2.475c1.588,1.65,2.382,4.017,2.382,7.099V395.18z"/>
		<path fill="#454346" d="M936.176,395.18l-0.957-3.339h-0.374c-0.763,1.214-1.845,2.154-3.246,2.815
			c-1.401,0.659-2.997,0.991-4.787,0.991c-3.067,0-5.379-0.82-6.936-2.465c-1.557-1.64-2.335-4.004-2.335-7.086v-17.024h7.123v15.25
			c0,1.884,0.335,3.298,1.004,4.237c0.669,0.944,1.736,1.414,3.199,1.414c1.993,0,3.433-0.667,4.32-1.995
			c0.887-1.334,1.331-3.539,1.331-6.622v-12.284h7.123v26.109H936.176z"/>
		<path fill="#454346" d="M956.382,389.972c1.245,0,2.74-0.272,4.484-0.817v5.301c-1.775,0.794-3.954,1.191-6.539,1.191
			c-2.849,0-4.924-0.719-6.224-2.159c-1.3-1.44-1.95-3.602-1.95-6.482v-12.587h-3.409v-3.013l3.923-2.382l2.055-5.511h4.554v5.558
			h7.31v5.348h-7.31v12.587c0,1.012,0.284,1.759,0.852,2.242C954.697,389.73,955.448,389.972,956.382,389.972z"/>
		<path fill="#454346" d="M980.581,395.18h-20.621v-4.204l12.097-16.464h-11.373v-5.441h19.476v4.624l-11.77,16.043h12.19V395.18z"
			/>
		<path fill="#454346" d="M996.351,395.647c-3.067,0-5.472-1.113-7.216-3.339h-0.374c0.249,2.18,0.374,3.441,0.374,3.783v10.579
			h-7.123v-37.598h5.792l1.004,3.386h0.327c1.666-2.584,4.133-3.877,7.403-3.877c3.083,0,5.496,1.191,7.239,3.573
			c1.744,2.382,2.616,5.69,2.616,9.925c0,2.787-0.409,5.208-1.226,7.263c-0.817,2.055-1.981,3.62-3.491,4.694
			C1000.165,395.109,998.391,395.647,996.351,395.647z M994.249,374.279c-1.759,0-3.044,0.542-3.853,1.622
			c-0.81,1.085-1.23,2.87-1.261,5.361v0.771c0,2.802,0.417,4.811,1.249,6.025c0.833,1.214,2.152,1.822,3.958,1.822
			c3.192,0,4.787-2.631,4.787-7.893c0-2.569-0.393-4.497-1.179-5.779C997.164,374.919,995.931,374.279,994.249,374.279z"/>
		<path fill="#454346" d="M1025.128,395.18l-1.378-3.55h-0.187c-1.199,1.51-2.433,2.558-3.701,3.14
			c-1.269,0.586-2.923,0.877-4.963,0.877c-2.507,0-4.48-0.716-5.92-2.148c-1.44-1.432-2.16-3.472-2.16-6.118
			c0-2.771,0.969-4.813,2.907-6.129c1.938-1.316,4.861-2.045,8.769-2.185l4.53-0.14v-1.144c0-2.647-1.354-3.97-4.063-3.97
			c-2.086,0-4.538,0.631-7.356,1.892l-2.359-4.811c3.005-1.572,6.336-2.359,9.995-2.359c3.503,0,6.189,0.763,8.057,2.289
			c1.868,1.526,2.802,3.845,2.802,6.959v17.398H1025.128z M1023.027,383.083l-2.756,0.093c-2.071,0.062-3.612,0.436-4.624,1.121
			c-1.012,0.685-1.518,1.728-1.518,3.129c0,2.008,1.152,3.013,3.456,3.013c1.65,0,2.97-0.475,3.958-1.425
			c0.989-0.95,1.483-2.211,1.483-3.783V383.083z"/>
		<path fill="#454346" d="M1057.804,395.18h-7.123v-15.25c0-3.768-1.401-5.651-4.203-5.651c-1.993,0-3.433,0.677-4.32,2.032
			c-0.887,1.354-1.331,3.55-1.331,6.586v12.284h-7.123v-36.337h7.123v7.403c0,0.576-0.055,1.931-0.164,4.063l-0.163,2.102h0.374
			c1.588-2.553,4.11-3.83,7.566-3.83c3.067,0,5.395,0.825,6.983,2.475c1.588,1.65,2.382,4.017,2.382,7.099V395.18z"/>
	</g>
	<g>
		
			<circle display="none" fill="none" stroke="#FFFFFF" stroke-width="0.7" stroke-miterlimit="10" cx="960.388" cy="211.536" r="122.743"/>
		<circle fill="#FFEA02" cx="992.233" cy="214.193" r="60.24"/>
	</g>
</g>
<g display="none">
</g>
</svg>
